<!DOCTYPE svg PUBLIC "-//W3C//DTD SVG 1.1//EN" "http://www.w3.org/Graphics/SVG/1.1/DTD/svg11.dtd">
<!-- Uploaded to: SVG Repo, www.svgrepo.com, Transformed by: SVG Repo Mixer Tools -->
<svg width="64px" height="64px" viewBox="-1.6 -1.6 19.20 19.20" xmlns="http://www.w3.org/2000/svg" fill="#58bb6c" stroke="#58bb6c" stroke-width="0.144">
<g id="SVGRepo_bgCarrier" stroke-width="0"/>
<g id="SVGRepo_tracerCarrier" stroke-linecap="round" stroke-linejoin="round" stroke="#CCCCCC" stroke-width="0.384"/>
<g id="SVGRepo_iconCarrier"> <path d="M15.31.666C7.604 3.264.67 6.951.67 6.951l5.584 2.79 2.79 5.581.007.006.004.004S12.922 8.03 15.33.67l-.004-.002h-.006-.004a.01.01 0 0 0-.004-.002zm-1.773 1.793c-1.83 5.004-3.584 8.827-4.494 10.623l-1.72-3.443c1.431-1.543 4.293-5.255 5.511-6.473-1.218 1.218-4.927 4.077-6.47 5.51L2.925 6.959c1.764-.894 5.489-2.602 10.611-4.5z" style="marker:none" color="#000000" overflow="visible" fill="gray"/> </g>
</svg>